<svg width="463" height="116" viewBox="0 0 463 116" fill="none" xmlns="http://www.w3.org/2000/svg">
<g filter="url(#filter0_d_1000_199)">
<path d="M128.019 108.943C121.533 108.943 116.326 107.278 112.4 103.949C108.473 100.621 106.51 94.8166 106.51 86.5373V40.0622H117.777V85.0009C117.777 87.8176 118.118 90.1221 118.801 91.9146C119.484 93.707 120.466 95.1153 121.746 96.1396C123.026 97.1638 124.52 97.8893 126.227 98.3161C128.019 98.7428 129.94 98.9562 131.988 98.9562C135.232 98.9562 138.219 98.188 140.951 96.6517C143.682 95.1153 145.901 92.8961 147.608 89.9941C149.401 87.0067 150.297 83.5499 150.297 79.6236V40.0622H161.564V107.406H152.473L151.449 97.2918H150.553C148.76 100.023 146.712 102.242 144.407 103.949C142.188 105.656 139.67 106.894 136.854 107.662C134.122 108.516 131.178 108.943 128.019 108.943ZM199.528 108.943C192.87 108.943 187.237 107.705 182.628 105.23C178.104 102.669 174.647 98.7855 172.257 93.5789C169.953 88.3724 168.8 81.7575 168.8 73.7342C168.8 65.6256 169.953 59.0107 172.257 53.8895C174.647 48.6829 178.146 44.842 182.756 42.3667C187.365 39.8061 193.126 38.5258 200.04 38.5258C206.356 38.5258 211.648 39.7634 215.915 42.2387C220.183 44.6286 223.384 48.2561 225.518 53.1213C227.737 57.9011 228.847 63.9185 228.847 71.1736V76.5509H180.451C180.622 81.9282 181.39 86.3666 182.756 89.8661C184.207 93.2802 186.34 95.7981 189.157 97.4199C191.974 98.9562 195.516 99.7244 199.784 99.7244C202.686 99.7244 205.204 99.383 207.337 98.7002C209.557 97.932 211.392 96.8651 212.843 95.4994C214.379 94.1337 215.531 92.512 216.3 90.6342C217.068 88.7565 217.495 86.708 217.58 84.4888H228.591C228.505 88.0736 227.822 91.4024 226.542 94.4752C225.262 97.4625 223.384 100.023 220.909 102.157C218.433 104.291 215.403 105.955 211.819 107.15C208.234 108.345 204.137 108.943 199.528 108.943ZM180.707 68.1009H217.196C217.196 64.3453 216.769 61.1872 215.915 58.6266C215.062 56.066 213.824 53.9748 212.203 52.3531C210.666 50.7314 208.831 49.5791 206.697 48.8963C204.649 48.1281 202.302 47.744 199.656 47.744C195.729 47.744 192.401 48.4695 189.669 49.9205C186.938 51.3715 184.847 53.5907 183.396 56.5781C181.945 59.5655 181.048 63.4064 180.707 68.1009Z" fill="url(#paint0_linear_1000_199)"/>
</g>
<g filter="url(#filter1_d_1000_199)">
<path d="M128.019 107.471C121.533 107.471 116.326 105.807 112.4 102.478C108.473 99.149 106.51 93.3449 106.51 85.0656V38.5905H117.777V83.5292C117.777 86.3459 118.118 88.6504 118.801 90.4429C119.484 92.2353 120.466 93.6436 121.746 94.6679C123.026 95.6921 124.52 96.4176 126.227 96.8444C128.019 97.2712 129.94 97.4846 131.988 97.4846C135.232 97.4846 138.219 96.7164 140.951 95.18C143.682 93.6436 145.901 91.4244 147.608 88.5224C149.401 85.535 150.297 82.0782 150.297 78.1519V38.5905H161.564V105.935H152.473L151.449 95.8202H150.553C148.76 98.5515 146.712 100.771 144.407 102.478C142.188 104.185 139.67 105.422 136.854 106.191C134.122 107.044 131.178 107.471 128.019 107.471ZM199.528 107.471C192.87 107.471 187.237 106.233 182.628 103.758C178.104 101.197 174.647 97.3138 172.257 92.1073C169.953 86.9007 168.8 80.2858 168.8 72.2625C168.8 64.1539 169.953 57.539 172.257 52.4178C174.647 47.2112 178.146 43.3703 182.756 40.895C187.365 38.3344 193.126 37.0541 200.04 37.0541C206.356 37.0541 211.648 38.2918 215.915 40.767C220.183 43.1569 223.384 46.7844 225.518 51.6496C227.737 56.4294 228.847 62.4469 228.847 69.7019V75.0792H180.451C180.622 80.4565 181.39 84.8949 182.756 88.3944C184.207 91.8085 186.34 94.3265 189.157 95.9482C191.974 97.4846 195.516 98.2527 199.784 98.2527C202.686 98.2527 205.204 97.9113 207.337 97.2285C209.557 96.4603 211.392 95.3934 212.843 94.0277C214.379 92.6621 215.531 91.0403 216.3 89.1626C217.068 87.2848 217.495 85.2363 217.58 83.0171H228.591C228.505 86.602 227.822 89.9307 226.542 93.0035C225.262 95.9909 223.384 98.5515 220.909 100.685C218.433 102.819 215.403 104.484 211.819 105.679C208.234 106.873 204.137 107.471 199.528 107.471ZM180.707 66.6292H217.196C217.196 62.8736 216.769 59.7155 215.915 57.1549C215.062 54.5943 213.824 52.5031 212.203 50.8814C210.666 49.2597 208.831 48.1074 206.697 47.4246C204.649 46.6564 202.302 46.2723 199.656 46.2723C195.729 46.2723 192.401 46.9978 189.669 48.4488C186.938 49.8999 184.847 52.1191 183.396 55.1064C181.945 58.0938 181.048 61.9347 180.707 66.6292Z" fill="url(#paint1_linear_1000_199)"/>
</g>
<g filter="url(#filter2_d_1000_199)">
<path d="M224.194 110.371L263.92 9.80985H282.244L322.117 110.371H307.018L297.196 85.4507H248.235L238.56 110.371H224.194ZM252.779 73.5768H292.505L280.338 42.0598C280.045 41.1803 279.605 39.9587 279.019 38.395C278.433 36.8314 277.797 35.1212 277.113 33.2644C276.429 31.3098 275.745 29.3553 275.061 27.4007C274.377 25.3485 273.742 23.4917 273.155 21.8303H272.276C271.592 23.7848 270.81 26.0326 269.93 28.5735C269.051 31.1144 268.171 33.6064 267.292 36.0496C266.412 38.395 265.679 40.3985 265.093 42.0598L252.779 73.5768ZM328.367 110.371V9.80985H378.062C385 9.80985 390.766 11.1292 395.359 13.7678C399.953 16.3087 403.373 19.8757 405.621 24.4689C407.966 29.0621 409.139 34.3882 409.139 40.4473C409.139 46.6041 407.868 52.0768 405.328 56.8655C402.787 61.5564 399.171 65.2211 394.48 67.8598C389.887 70.4984 384.365 71.8177 377.915 71.8177H342.294V110.371H328.367ZM342.294 59.7973H377.036C382.508 59.7973 386.857 58.0871 390.082 54.6666C393.405 51.2462 395.066 46.5553 395.066 40.5939C395.066 36.5871 394.382 33.2155 393.014 30.4791C391.646 27.7428 389.642 25.6417 387.004 24.1757C384.365 22.6121 381.042 21.8303 377.036 21.8303H342.294V59.7973ZM418.526 110.371V9.80985H432.453V110.371H418.526Z" fill="url(#paint2_linear_1000_199)"/>
</g>
<g filter="url(#filter3_d_1000_199)">
<path d="M223.417 108.899L263.143 8.33817H281.467L321.339 108.899H306.241L296.419 83.979H247.458L237.783 108.899H223.417ZM252.002 72.1051H291.728L279.561 40.5881C279.268 39.7086 278.828 38.487 278.242 36.9234C277.655 35.3597 277.02 33.6495 276.336 31.7927C275.652 29.8381 274.968 27.8836 274.284 25.9291C273.6 23.8768 272.964 22.02 272.378 20.3586H271.499C270.814 22.3132 270.033 24.5609 269.153 27.1018C268.274 29.6427 267.394 32.1347 266.514 34.5779C265.635 36.9234 264.902 38.9268 264.316 40.5881L252.002 72.1051ZM327.59 108.899V8.33817H377.284C384.223 8.33817 389.989 9.65748 394.582 12.2961C399.175 14.837 402.596 18.4041 404.843 22.9972C407.189 27.5904 408.362 32.9165 408.362 38.9756C408.362 45.1324 407.091 50.6052 404.55 55.3938C402.009 60.0847 398.393 63.7495 393.703 66.3881C389.109 69.0267 383.588 70.3461 377.138 70.3461H341.516V108.899H327.59ZM341.516 58.3256H376.258C381.731 58.3256 386.08 56.6154 389.305 53.1949C392.628 49.7745 394.289 45.0836 394.289 39.1222C394.289 35.1154 393.605 31.7438 392.237 29.0075C390.868 26.2711 388.865 24.17 386.226 22.7041C383.588 21.1404 380.265 20.3586 376.258 20.3586H341.516V58.3256ZM417.749 108.899V8.33817H431.675V108.899H417.749Z" fill="url(#paint3_linear_1000_199)"/>
</g>
<g filter="url(#filter4_d_1000_199)">
<path d="M57.8695 109.916C47.1812 109.916 38.1216 107.982 30.6907 104.114C23.2598 100.144 17.5593 94.1892 13.5894 86.2493C9.72126 78.2077 7.78719 68.0283 7.78719 55.7113C7.78719 37.4904 12.2152 23.901 21.0712 14.9431C29.9272 5.98534 42.2442 1.50644 58.0222 1.50644C66.98 1.50644 74.9198 2.98244 81.8418 5.93444C88.7637 8.78465 94.1588 13.1618 98.0269 19.0658C101.997 24.868 103.982 32.1971 103.982 41.0531H89.3236C89.3236 34.9455 88.0003 29.9068 85.3537 25.9368C82.8088 21.9669 79.1952 19.0149 74.5127 17.0808C69.8302 15.0449 64.3333 14.027 58.0222 14.027C50.693 14.027 44.3819 15.4521 39.0886 18.3023C33.7954 21.1525 29.7745 25.5805 27.0261 31.5863C24.2777 37.4904 22.9035 45.1248 22.9035 54.4898V57.6963C22.9035 66.9595 24.2777 74.5431 27.0261 80.4471C29.7745 86.2493 33.7445 90.5246 38.9359 93.2731C44.2292 96.0215 50.5913 97.3957 58.0222 97.3957C64.5369 97.3957 70.1356 96.4287 74.8181 94.4946C79.6023 92.5605 83.2669 89.6085 85.8117 85.6386C88.4583 81.5668 89.7817 76.4772 89.7817 70.3696H103.982C103.982 79.4292 101.946 86.8601 97.8742 92.6623C93.9043 98.4645 88.4584 102.791 81.5364 105.641C74.6145 108.491 66.7255 109.916 57.8695 109.916Z" fill="url(#paint4_linear_1000_199)"/>
</g>
<g filter="url(#filter5_d_1000_199)">
<path d="M57.8694 108.409C47.1812 108.409 38.1216 106.475 30.6907 102.607C23.2598 98.6373 17.5593 92.6824 13.5894 84.7425C9.72125 76.7008 7.78718 66.5215 7.78718 54.2045C7.78718 35.9835 12.2152 22.3942 21.0712 13.4363C29.9272 4.47854 42.2442 -0.000358221 58.0221 -0.000358221C66.9799 -0.000358221 74.9198 1.47564 81.8418 4.42764C88.7637 7.27785 94.1587 11.655 98.0269 17.559C101.997 23.3612 103.982 30.6903 103.982 39.5463H89.3236C89.3236 33.4387 88.0002 28.3999 85.3536 24.43C82.8088 20.4601 79.1951 17.5081 74.5126 15.574C69.8302 13.5381 64.3333 12.5202 58.0221 12.5202C50.693 12.5202 44.3818 13.9453 39.0886 16.7955C33.7954 19.6457 29.7745 24.0737 27.0261 30.0795C24.2777 35.9835 22.9035 43.618 22.9035 52.983V56.1895C22.9035 65.4527 24.2777 73.0363 27.0261 78.9403C29.7745 84.7425 33.7445 89.0178 38.9359 91.7662C44.2292 94.5147 50.5912 95.8889 58.0221 95.8889C64.5369 95.8889 70.1355 94.9218 74.818 92.9878C79.6023 91.0537 83.2669 88.1017 85.8117 84.1317C88.4583 80.06 89.7816 74.9704 89.7816 68.8628H103.982C103.982 77.9224 101.946 85.3533 97.8742 91.1555C93.9043 96.9577 88.4583 101.284 81.5364 104.134C74.6144 106.984 66.7255 108.409 57.8694 108.409Z" fill="url(#paint5_linear_1000_199)"/>
</g>
<g filter="url(#filter6_d_1000_199)">
<path d="M445.395 11.2945C446.665 11.3217 447.842 11.4557 448.927 11.6968C450.048 11.9023 451.039 12.2866 451.898 12.8497C452.759 13.3765 453.415 14.1168 453.866 15.0707C454.355 15.989 454.584 17.1742 454.553 18.6262L454.304 30.2784C454.288 31.0407 454.511 31.681 454.972 32.1993C455.433 32.6812 456.007 33.0385 456.692 33.271C457.414 33.468 458.138 33.5742 458.864 33.5897L458.765 38.2179C458.039 38.2025 457.311 38.2959 456.58 38.4982C455.887 38.6649 455.299 38.9792 454.817 39.4411C454.335 39.9029 454.086 40.5149 454.07 41.2772L453.819 53.0383C453.788 54.4903 453.508 55.6647 452.981 56.5613C452.489 57.495 451.802 58.2067 450.92 58.6963C450.037 59.2222 449.031 59.5639 447.902 59.7213C446.808 59.9159 445.626 59.9996 444.355 59.9725L444.42 56.9233C445.074 56.9373 445.766 56.8612 446.495 56.6952C447.225 56.5292 447.868 56.1979 448.423 55.7014C448.978 55.2411 449.283 54.5576 449.339 53.6509L450.083 41.7369C450.195 39.9234 450.642 38.5167 451.426 37.5165C452.21 36.5164 453.637 36.0384 455.706 36.0826L455.716 35.5926C454.337 35.5631 453.253 35.3039 452.464 34.815C451.712 34.3268 451.163 33.6614 450.818 32.8188C450.51 31.9406 450.351 30.9022 450.34 29.7035L450.103 17.823C450.087 16.8785 449.812 16.1644 449.278 15.6809C448.779 15.1982 448.169 14.8583 447.447 14.6613C446.725 14.4643 446.019 14.3584 445.329 14.3437L445.395 11.2945Z" fill="url(#paint6_linear_1000_199)"/>
</g>
<g filter="url(#filter7_d_1000_199)">
<path d="M445.395 8.95274C446.665 8.97986 447.842 9.11394 448.927 9.35498C450.048 9.5605 451.039 9.94481 451.898 10.5079C452.759 11.0347 453.415 11.775 453.866 12.7289C454.355 13.6472 454.584 14.8324 454.553 16.2844L454.304 27.9366C454.288 28.6989 454.511 29.3392 454.972 29.8575C455.433 30.3394 456.007 30.6967 456.692 30.9292C457.414 31.1262 458.138 31.2324 458.864 31.2479L458.765 35.8762C458.039 35.8607 457.311 35.9541 456.58 36.1564C455.887 36.3231 455.299 36.6374 454.817 37.0993C454.335 37.5611 454.086 38.1731 454.07 38.9354L453.819 50.6965C453.788 52.1485 453.508 53.3229 452.981 54.2195C452.489 55.1532 451.802 55.8649 450.92 56.3545C450.037 56.8804 449.031 57.2221 447.902 57.3795C446.808 57.5741 445.626 57.6578 444.355 57.6307L444.42 54.5815C445.074 54.5955 445.766 54.5194 446.495 54.3534C447.225 54.1874 447.868 53.8561 448.423 53.3596C448.978 52.8993 449.283 52.2158 449.339 51.3091L450.083 39.3951C450.195 37.5816 450.642 36.1749 451.426 35.1747C452.21 34.1746 453.637 33.6966 455.706 33.7408L455.716 33.2508C454.337 33.2213 453.253 32.9621 452.464 32.4732C451.712 31.985 451.163 31.3196 450.818 30.477C450.51 29.5988 450.351 28.5604 450.34 27.3617L450.103 15.4812C450.087 14.5367 449.812 13.8226 449.278 13.3391C448.779 12.8564 448.169 12.5165 447.447 12.3195C446.725 12.1225 446.019 12.0166 445.329 12.0019L445.395 8.95274Z" fill="url(#paint7_linear_1000_199)"/>
</g>
<defs>
<filter id="filter0_d_1000_199" x="104.392" y="38.5254" width="126.576" height="74.6566" filterUnits="userSpaceOnUse" color-interpolation-filters="sRGB">
<feFlood flood-opacity="0" result="BackgroundImageFix"/>
<feColorMatrix in="SourceAlpha" type="matrix" values="0 0 0 0 0 0 0 0 0 0 0 0 0 0 0 0 0 0 127 0" result="hardAlpha"/>
<feOffset dy="2.11982"/>
<feGaussianBlur stdDeviation="1.05991"/>
<feComposite in2="hardAlpha" operator="out"/>
<feColorMatrix type="matrix" values="0 0 0 0 0 0 0 0 0 0 0 0 0 0 0 0 0 0 0.25 0"/>
<feBlend mode="normal" in2="BackgroundImageFix" result="effect1_dropShadow_1000_199"/>
<feBlend mode="normal" in="SourceGraphic" in2="effect1_dropShadow_1000_199" result="shape"/>
</filter>
<filter id="filter1_d_1000_199" x="104.392" y="37.0537" width="126.576" height="74.6566" filterUnits="userSpaceOnUse" color-interpolation-filters="sRGB">
<feFlood flood-opacity="0" result="BackgroundImageFix"/>
<feColorMatrix in="SourceAlpha" type="matrix" values="0 0 0 0 0 0 0 0 0 0 0 0 0 0 0 0 0 0 127 0" result="hardAlpha"/>
<feOffset dy="2.11982"/>
<feGaussianBlur stdDeviation="1.05991"/>
<feComposite in2="hardAlpha" operator="out"/>
<feColorMatrix type="matrix" values="0 0 0 0 0 0 0 0 0 0 0 0 0 0 0 0 0 0 0.25 0"/>
<feBlend mode="normal" in2="BackgroundImageFix" result="effect1_dropShadow_1000_199"/>
<feBlend mode="normal" in="SourceGraphic" in2="effect1_dropShadow_1000_199" result="shape"/>
</filter>
<filter id="filter2_d_1000_199" x="221.768" y="9.80957" width="213.112" height="105.416" filterUnits="userSpaceOnUse" color-interpolation-filters="sRGB">
<feFlood flood-opacity="0" result="BackgroundImageFix"/>
<feColorMatrix in="SourceAlpha" type="matrix" values="0 0 0 0 0 0 0 0 0 0 0 0 0 0 0 0 0 0 127 0" result="hardAlpha"/>
<feOffset dy="2.42712"/>
<feGaussianBlur stdDeviation="1.21356"/>
<feComposite in2="hardAlpha" operator="out"/>
<feColorMatrix type="matrix" values="0 0 0 0 0 0 0 0 0 0 0 0 0 0 0 0 0 0 0.25 0"/>
<feBlend mode="normal" in2="BackgroundImageFix" result="effect1_dropShadow_1000_199"/>
<feBlend mode="normal" in="SourceGraphic" in2="effect1_dropShadow_1000_199" result="shape"/>
</filter>
<filter id="filter3_d_1000_199" x="220.991" y="8.33789" width="213.112" height="105.416" filterUnits="userSpaceOnUse" color-interpolation-filters="sRGB">
<feFlood flood-opacity="0" result="BackgroundImageFix"/>
<feColorMatrix in="SourceAlpha" type="matrix" values="0 0 0 0 0 0 0 0 0 0 0 0 0 0 0 0 0 0 127 0" result="hardAlpha"/>
<feOffset dy="2.42712"/>
<feGaussianBlur stdDeviation="1.21356"/>
<feComposite in2="hardAlpha" operator="out"/>
<feColorMatrix type="matrix" values="0 0 0 0 0 0 0 0 0 0 0 0 0 0 0 0 0 0 0.25 0"/>
<feBlend mode="normal" in2="BackgroundImageFix" result="effect1_dropShadow_1000_199"/>
<feBlend mode="normal" in="SourceGraphic" in2="effect1_dropShadow_1000_199" result="shape"/>
</filter>
<filter id="filter4_d_1000_199" x="6.12984" y="1.50684" width="99.5099" height="111.728" filterUnits="userSpaceOnUse" color-interpolation-filters="sRGB">
<feFlood flood-opacity="0" result="BackgroundImageFix"/>
<feColorMatrix in="SourceAlpha" type="matrix" values="0 0 0 0 0 0 0 0 0 0 0 0 0 0 0 0 0 0 127 0" result="hardAlpha"/>
<feOffset dy="1.65922"/>
<feGaussianBlur stdDeviation="0.829612"/>
<feComposite in2="hardAlpha" operator="out"/>
<feColorMatrix type="matrix" values="0 0 0 0 0 0 0 0 0 0 0 0 0 0 0 0 0 0 0.25 0"/>
<feBlend mode="normal" in2="BackgroundImageFix" result="effect1_dropShadow_1000_199"/>
<feBlend mode="normal" in="SourceGraphic" in2="effect1_dropShadow_1000_199" result="shape"/>
</filter>
<filter id="filter5_d_1000_199" x="6.12984" y="0" width="99.5099" height="111.728" filterUnits="userSpaceOnUse" color-interpolation-filters="sRGB">
<feFlood flood-opacity="0" result="BackgroundImageFix"/>
<feColorMatrix in="SourceAlpha" type="matrix" values="0 0 0 0 0 0 0 0 0 0 0 0 0 0 0 0 0 0 127 0" result="hardAlpha"/>
<feOffset dy="1.65922"/>
<feGaussianBlur stdDeviation="0.829612"/>
<feComposite in2="hardAlpha" operator="out"/>
<feColorMatrix type="matrix" values="0 0 0 0 0 0 0 0 0 0 0 0 0 0 0 0 0 0 0.25 0"/>
<feBlend mode="normal" in2="BackgroundImageFix" result="effect1_dropShadow_1000_199"/>
<feBlend mode="normal" in="SourceGraphic" in2="effect1_dropShadow_1000_199" result="shape"/>
</filter>
<filter id="filter6_d_1000_199" x="443.454" y="11.2949" width="16.78" height="50.7791" filterUnits="userSpaceOnUse" color-interpolation-filters="sRGB">
<feFlood flood-opacity="0" result="BackgroundImageFix"/>
<feColorMatrix in="SourceAlpha" type="matrix" values="0 0 0 0 0 0 0 0 0 0 0 0 0 0 0 0 0 0 127 0" result="hardAlpha"/>
<feOffset dy="0.901734"/>
<feGaussianBlur stdDeviation="0.450867"/>
<feComposite in2="hardAlpha" operator="out"/>
<feColorMatrix type="matrix" values="0 0 0 0 0 0 0 0 0 0 0 0 0 0 0 0 0 0 0.25 0"/>
<feBlend mode="normal" in2="BackgroundImageFix" result="effect1_dropShadow_1000_199"/>
<feBlend mode="normal" in="SourceGraphic" in2="effect1_dropShadow_1000_199" result="shape"/>
</filter>
<filter id="filter7_d_1000_199" x="443.454" y="8.95312" width="16.78" height="50.7791" filterUnits="userSpaceOnUse" color-interpolation-filters="sRGB">
<feFlood flood-opacity="0" result="BackgroundImageFix"/>
<feColorMatrix in="SourceAlpha" type="matrix" values="0 0 0 0 0 0 0 0 0 0 0 0 0 0 0 0 0 0 127 0" result="hardAlpha"/>
<feOffset dy="0.901734"/>
<feGaussianBlur stdDeviation="0.450867"/>
<feComposite in2="hardAlpha" operator="out"/>
<feColorMatrix type="matrix" values="0 0 0 0 0 0 0 0 0 0 0 0 0 0 0 0 0 0 0.25 0"/>
<feBlend mode="normal" in2="BackgroundImageFix" result="effect1_dropShadow_1000_199"/>
<feBlend mode="normal" in="SourceGraphic" in2="effect1_dropShadow_1000_199" result="shape"/>
</filter>
<linearGradient id="paint0_linear_1000_199" x1="166.203" y1="14.4062" x2="166.203" y2="104.899" gradientUnits="userSpaceOnUse">
<stop stop-color="#2D2D2D"/>
<stop offset="1"/>
</linearGradient>
<linearGradient id="paint1_linear_1000_199" x1="166.203" y1="12.9346" x2="166.203" y2="103.428" gradientUnits="userSpaceOnUse">
<stop stop-color="#2D2D2D"/>
<stop offset="1"/>
</linearGradient>
<linearGradient id="paint2_linear_1000_199" x1="334.361" y1="3.37109" x2="334.361" y2="103.428" gradientUnits="userSpaceOnUse">
<stop stop-color="#2D2D2D"/>
<stop offset="1"/>
</linearGradient>
<linearGradient id="paint3_linear_1000_199" x1="333.584" y1="1.89941" x2="333.584" y2="101.957" gradientUnits="userSpaceOnUse">
<stop stop-color="#2D2D2D"/>
<stop offset="1"/>
</linearGradient>
<linearGradient id="paint4_linear_1000_199" x1="55.7917" y1="18.084" x2="55.7917" y2="92.3912" gradientUnits="userSpaceOnUse">
<stop stop-color="#2D2D2D"/>
<stop offset="1"/>
</linearGradient>
<linearGradient id="paint5_linear_1000_199" x1="55.7917" y1="5.57715" x2="55.7917" y2="100.484" gradientUnits="userSpaceOnUse">
<stop stop-color="#2D2D2D"/>
<stop offset="1"/>
</linearGradient>
<linearGradient id="paint6_linear_1000_199" x1="452.56" y1="11.4771" x2="451.643" y2="54.4673" gradientUnits="userSpaceOnUse">
<stop stop-color="#2D2D2D"/>
<stop offset="1"/>
</linearGradient>
<linearGradient id="paint7_linear_1000_199" x1="452.56" y1="9.13529" x2="451.643" y2="52.1255" gradientUnits="userSpaceOnUse">
<stop stop-color="#2D2D2D"/>
<stop offset="1"/>
</linearGradient>
</defs>
</svg>
