<svg width="464" height="115" viewBox="0 0 464 115" fill="none" xmlns="http://www.w3.org/2000/svg">
<g filter="url(#filter0_d_1180_41)">
<path d="M128.315 108.215C121.813 108.215 116.594 106.546 112.659 103.21C108.724 99.8734 106.756 94.0559 106.756 85.7573V39.1743H118.049V84.2174C118.049 87.0406 118.391 89.3505 119.075 91.1471C119.76 92.9437 120.744 94.3553 122.027 95.3819C123.31 96.4086 124.807 97.1358 126.518 97.5635C128.315 97.9913 130.24 98.2052 132.293 98.2052C135.544 98.2052 138.539 97.4352 141.276 95.8953C144.014 94.3553 146.238 92.131 147.949 89.2222C149.746 86.2279 150.644 82.763 150.644 78.8276V39.1743H161.937V106.675H152.826L151.799 96.5369H150.901C149.104 99.2746 147.051 101.499 144.741 103.21C142.517 104.921 139.993 106.161 137.17 106.931C134.432 107.787 131.48 108.215 128.315 108.215ZM199.989 108.215C193.316 108.215 187.67 106.974 183.05 104.493C178.516 101.927 175.051 98.0341 172.655 92.8154C170.346 87.5967 169.191 80.9664 169.191 72.9245C169.191 64.7971 170.346 58.1668 172.655 53.0337C175.051 47.815 178.558 43.9652 183.178 41.4842C187.798 38.9176 193.573 37.6343 200.503 37.6343C206.833 37.6343 212.138 38.8748 216.415 41.3558C220.693 43.7513 223.901 47.3873 226.04 52.2637C228.264 57.0546 229.376 63.0861 229.376 70.358V75.7478H180.868C181.04 81.1375 181.809 85.5862 183.178 89.0939C184.633 92.5159 186.771 95.0397 189.595 96.6652C192.418 98.2052 195.968 98.9751 200.246 98.9751C203.155 98.9751 205.678 98.6329 207.817 97.9485C210.042 97.1785 211.881 96.1091 213.335 94.7403C214.875 93.3715 216.03 91.746 216.8 89.8638C217.57 87.9817 217.998 85.9284 218.084 83.7041H229.12C229.034 87.2973 228.35 90.6338 227.066 93.7137C225.783 96.708 223.901 99.2746 221.42 101.413C218.939 103.552 215.902 105.22 212.309 106.418C208.716 107.616 204.609 108.215 199.989 108.215ZM181.125 67.2781H217.699C217.699 63.5138 217.271 60.3484 216.415 57.7818C215.56 55.2153 214.319 53.1192 212.694 51.4938C211.154 49.8683 209.314 48.7133 207.176 48.0289C205.122 47.2589 202.77 46.8739 200.118 46.8739C196.182 46.8739 192.846 47.6011 190.108 49.0555C187.37 50.5099 185.274 52.7343 183.82 55.7286C182.366 58.7229 181.467 62.5727 181.125 67.2781Z" fill="url(#paint0_linear_1180_41)"/>
</g>
<g filter="url(#filter1_d_1180_41)">
<path d="M128.315 106.74C121.813 106.74 116.594 105.072 112.659 101.735C108.724 98.3988 106.756 92.5813 106.756 84.2827V37.6997H118.049V82.7428C118.049 85.566 118.391 87.8759 119.075 89.6725C119.76 91.4691 120.744 92.8807 122.027 93.9073C123.31 94.934 124.807 95.6611 126.518 96.0889C128.315 96.5167 130.24 96.7305 132.293 96.7305C135.544 96.7305 138.539 95.9606 141.276 94.4206C144.014 92.8807 146.238 90.6564 147.949 87.7476C149.746 84.7533 150.644 81.2884 150.644 77.353V37.6997H161.937V105.2H152.826L151.799 95.0623H150.901C149.104 97.7999 147.051 100.024 144.741 101.735C142.517 103.446 139.993 104.687 137.17 105.457C134.432 106.312 131.48 106.74 128.315 106.74ZM199.989 106.74C193.316 106.74 187.67 105.5 183.05 103.019C178.516 100.452 175.051 96.5594 172.655 91.3408C170.346 86.1221 169.191 79.4918 169.191 71.4499C169.191 63.3225 170.346 56.6922 172.655 51.5591C175.051 46.3404 178.558 42.4906 183.178 40.0096C187.798 37.443 193.573 36.1597 200.503 36.1597C206.833 36.1597 212.138 37.4002 216.415 39.8812C220.693 42.2767 223.901 45.9126 226.04 50.7891C228.264 55.58 229.376 61.6114 229.376 68.8834V74.2731H180.868C181.04 79.6629 181.809 84.1116 183.178 87.6193C184.633 91.0413 186.771 93.5651 189.595 95.1906C192.418 96.7305 195.968 97.5005 200.246 97.5005C203.155 97.5005 205.678 97.1583 207.817 96.4739C210.042 95.7039 211.881 94.6345 213.335 93.2657C214.875 91.8969 216.03 90.2714 216.8 88.3892C217.57 86.5071 217.998 84.4538 218.084 82.2295H229.12C229.034 85.8227 228.35 89.1592 227.066 92.2391C225.783 95.2334 223.901 97.7999 221.42 99.9387C218.939 102.078 215.902 103.746 212.309 104.944C208.716 106.141 204.609 106.74 199.989 106.74ZM181.125 65.8035H217.699C217.699 62.0392 217.271 58.8738 216.415 56.3072C215.56 53.7407 214.319 51.6446 212.694 50.0191C211.154 48.3937 209.314 47.2387 207.176 46.5543C205.122 45.7843 202.77 45.3993 200.118 45.3993C196.182 45.3993 192.846 46.1265 190.108 47.5809C187.37 49.0353 185.274 51.2597 183.82 54.254C182.366 57.2483 181.467 61.0981 181.125 65.8035Z" fill="url(#paint1_linear_1180_41)"/>
</g>
<g filter="url(#filter2_d_1180_41)">
<path d="M224.72 109.614L264.538 8.81936H282.905L322.87 109.614H307.736L297.892 84.6359H248.817L239.119 109.614H224.72ZM253.372 72.7345H293.19L280.995 41.1443C280.701 40.2627 280.26 39.0382 279.672 37.471C279.085 35.9037 278.448 34.1895 277.762 32.3284C277.076 30.3693 276.391 28.4102 275.705 26.4511C275.019 24.3941 274.383 22.533 273.795 20.8677H272.913C272.228 22.8268 271.444 25.0798 270.562 27.6266C269.681 30.1734 268.799 32.6712 267.918 35.1201C267.036 37.471 266.301 39.479 265.714 41.1443L253.372 72.7345ZM329.135 109.614V8.81936H378.945C385.9 8.81936 391.679 10.1417 396.283 12.7865C400.887 15.3333 404.315 18.9087 406.568 23.5125C408.919 28.1163 410.094 33.4549 410.094 39.528C410.094 45.6991 408.821 51.1846 406.274 55.9843C403.727 60.6861 400.103 64.3594 395.401 67.0042C390.797 69.6489 385.263 70.9713 378.798 70.9713H343.094V109.614H329.135ZM343.094 58.9229H377.916C383.402 58.9229 387.761 57.2087 390.993 53.7804C394.324 50.352 395.989 45.6502 395.989 39.6749C395.989 35.6588 395.303 32.2794 393.932 29.5367C392.561 26.794 390.553 24.688 387.908 23.2186C385.263 21.6514 381.933 20.8677 377.916 20.8677H343.094V58.9229ZM419.504 109.614V8.81936H433.462V109.614H419.504Z" fill="url(#paint2_linear_1180_41)"/>
</g>
<g filter="url(#filter3_d_1180_41)">
<path d="M223.931 108.14L263.749 7.34476H282.116L322.081 108.14H306.947L297.103 83.1613H248.028L238.33 108.14H223.931ZM252.582 71.2599H292.401L280.206 39.6697C279.912 38.7881 279.471 37.5636 278.883 35.9964C278.295 34.4291 277.659 32.7149 276.973 30.8538C276.287 28.8947 275.602 26.9356 274.916 24.9765C274.23 22.9195 273.594 21.0583 273.006 19.3931H272.124C271.439 21.3522 270.655 23.6052 269.773 26.152C268.892 28.6988 268.01 31.1966 267.129 33.6455C266.247 35.9964 265.512 38.0044 264.925 39.6697L252.582 71.2599ZM328.346 108.14V7.34476H378.156C385.111 7.34476 390.89 8.66714 395.494 11.3119C400.098 13.8587 403.526 17.434 405.779 22.0379C408.13 26.6417 409.305 31.9802 409.305 38.0534C409.305 44.2245 408.032 49.71 405.485 54.5097C402.938 59.2115 399.314 62.8848 394.612 65.5296C390.008 68.1743 384.474 69.4967 378.009 69.4967H342.305V108.14H328.346ZM342.305 57.4483H377.127C382.613 57.4483 386.972 55.7341 390.204 52.3057C393.535 48.8773 395.2 44.1755 395.2 38.2003C395.2 34.1842 394.514 30.8048 393.143 28.0621C391.772 25.3194 389.764 23.2133 387.119 21.744C384.474 20.1768 381.144 19.3931 377.127 19.3931H342.305V57.4483ZM418.715 108.14V7.34476H432.673V108.14H418.715Z" fill="url(#paint3_linear_1180_41)"/>
</g>
<g filter="url(#filter4_d_1180_41)">
<path d="M58.0039 110.198C47.2908 110.198 38.2101 108.259 30.762 104.382C23.3138 100.403 17.6001 94.4343 13.621 86.4759C9.74384 78.4156 7.80528 68.2126 7.80528 55.867C7.80528 37.6037 12.2436 23.9827 21.1202 15.0041C29.9968 6.02547 42.3424 1.53616 58.157 1.53616C67.1356 1.53616 75.0939 3.01559 82.0319 5.97445C88.97 8.83129 94.3775 13.2186 98.2547 19.1363C102.234 24.952 104.223 32.2981 104.223 41.1747H89.5311C89.5311 35.0529 88.2047 30.0025 85.552 26.0233C83.0012 22.0441 79.3792 19.0853 74.6858 17.1467C69.9924 15.1061 64.4828 14.0858 58.157 14.0858C50.8108 14.0858 44.485 15.5142 39.1794 18.3711C33.8739 21.2279 29.8437 25.6662 27.0889 31.686C24.3341 37.6037 22.9567 45.2559 22.9567 54.6427V57.8566C22.9567 67.1413 24.3341 74.7425 27.0889 80.6602C29.8437 86.4759 33.8229 90.7612 39.0264 93.516C44.3319 96.2708 50.7088 97.6482 58.157 97.6482C64.6869 97.6482 70.2985 96.6789 74.9919 94.7404C79.7873 92.8018 83.4603 89.8429 86.0111 85.8638C88.6639 81.7826 89.9903 76.6811 89.9903 70.5593H104.223C104.223 79.6399 102.183 87.0881 98.1016 92.9038C94.1225 98.7195 88.6639 103.056 81.7258 105.913C74.7878 108.769 66.8805 110.198 58.0039 110.198Z" fill="url(#paint4_linear_1180_41)"/>
</g>
<g filter="url(#filter5_d_1180_41)">
<path d="M58.0039 108.662C47.2908 108.662 38.2101 106.723 30.762 102.846C23.3138 98.8669 17.6001 92.8981 13.621 84.9398C9.74384 76.8795 7.80528 66.6765 7.80528 54.3309C7.80528 36.0676 12.2436 22.4466 21.1202 13.468C29.9967 4.48937 42.3423 6.13907e-05 58.157 6.13907e-05C67.1356 6.13907e-05 75.0939 1.47949 82.0319 4.43835C88.9699 7.29518 94.3775 11.6825 98.2546 17.6002C102.234 23.4159 104.223 30.762 104.223 39.6386H89.5311C89.5311 33.5168 88.2047 28.4664 85.5519 24.4872C83.0012 20.508 79.3791 17.5492 74.6858 15.6106C69.9924 13.57 64.4828 12.5497 58.157 12.5497C50.8108 12.5497 44.485 13.9781 39.1794 16.835C33.8739 19.6918 29.8437 24.1301 27.0889 30.1498C24.3341 36.0676 22.9567 43.7198 22.9567 53.1065V56.3205C22.9567 65.6052 24.3341 73.2064 27.0889 79.1241C29.8437 84.9398 33.8229 89.2251 39.0264 91.9799C44.3319 94.7347 50.7088 96.1121 58.157 96.1121C64.6869 96.1121 70.2985 95.1428 74.9919 93.2042C79.7873 91.2657 83.4603 88.3068 86.0111 84.3276C88.6638 80.2464 89.9902 75.145 89.9902 69.0232H104.223C104.223 78.1038 102.183 85.552 98.1016 91.3677C94.1224 97.1834 88.6638 101.52 81.7258 104.376C74.7878 107.233 66.8805 108.662 58.0039 108.662Z" fill="url(#paint5_linear_1180_41)"/>
</g>
<g filter="url(#filter6_d_1180_41)">
<path d="M446.427 10.4634C447.7 10.4906 448.88 10.625 449.967 10.8666C451.091 11.0726 452.084 11.4578 452.945 12.0222C453.808 12.5502 454.465 13.2923 454.918 14.2483C455.408 15.1688 455.637 16.3567 455.606 17.8121L455.357 29.4914C455.341 30.2555 455.564 30.8972 456.026 31.4167C456.489 31.8998 457.063 32.2579 457.75 32.4909C458.474 32.6884 459.2 32.7949 459.927 32.8104L459.828 37.4494C459.101 37.4338 458.371 37.5275 457.638 37.7302C456.943 37.8974 456.354 38.2124 455.871 38.6753C455.388 39.1382 455.138 39.7517 455.122 40.5158L454.87 52.3042C454.839 53.7596 454.559 54.9366 454.03 55.8353C453.537 56.7712 452.848 57.4845 451.964 57.9753C451.08 58.5024 450.071 58.8449 448.939 59.0027C447.843 59.1977 446.658 59.2816 445.385 59.2545L445.45 56.1982C446.105 56.2122 446.798 56.136 447.53 55.9696C448.262 55.8032 448.906 55.4711 449.462 54.9734C450.018 54.5121 450.324 53.827 450.38 52.9182L451.126 40.9765C451.238 39.1588 451.686 37.7488 452.472 36.7463C453.258 35.7439 454.688 35.2648 456.762 35.3091L456.772 34.8179C455.39 34.7884 454.303 34.5286 453.513 34.0385C452.759 33.5492 452.209 32.8823 451.863 32.0377C451.554 31.1574 451.394 30.1166 451.384 28.9152L451.146 17.0071C451.13 16.0603 450.854 15.3446 450.319 14.86C449.819 14.3761 449.208 14.0354 448.484 13.838C447.76 13.6405 447.053 13.5344 446.361 13.5197L446.427 10.4634Z" fill="url(#paint6_linear_1180_41)"/>
</g>
<g filter="url(#filter7_d_1180_41)">
<path d="M446.427 8.11576C447.7 8.14294 448.88 8.27734 449.967 8.51894C451.091 8.72494 452.084 9.11014 452.945 9.67454C453.808 10.2026 454.465 10.9446 454.918 11.9007C455.408 12.8212 455.637 14.0091 455.606 15.4644L455.357 27.1437C455.341 27.9078 455.564 28.5496 456.026 29.069C456.489 29.5521 457.063 29.9102 457.75 30.1433C458.474 30.3407 459.2 30.4472 459.927 30.4628L459.828 35.1017C459.101 35.0862 458.371 35.1798 457.638 35.3826C456.943 35.5497 456.354 35.8648 455.871 36.3277C455.388 36.7906 455.138 37.404 455.122 38.1681L454.87 49.9566C454.839 51.4119 454.559 52.589 454.03 53.4877C453.537 54.4236 452.848 55.1369 451.964 55.6276C451.08 56.1548 450.071 56.4972 448.939 56.6551C447.843 56.8501 446.658 56.934 445.385 56.9068L445.45 53.8505C446.105 53.8645 446.798 53.7883 447.53 53.6219C448.262 53.4555 448.906 53.1235 449.462 52.6258C450.018 52.1644 450.324 51.4793 450.38 50.5705L451.126 38.6288C451.238 36.8112 451.686 35.4011 452.472 34.3987C453.258 33.3962 454.688 32.9172 456.762 32.9614L456.772 32.4702C455.39 32.4407 454.303 32.1809 453.513 31.6908C452.759 31.2015 452.209 30.5346 451.863 29.69C451.554 28.8098 451.394 27.769 451.384 26.5675L451.146 14.6594C451.13 13.7127 450.854 12.997 450.319 12.5123C449.819 12.0285 449.208 11.6878 448.484 11.4903C447.76 11.2929 447.053 11.1868 446.361 11.172L446.427 8.11576Z" fill="url(#paint7_linear_1180_41)"/>
</g>
<defs>
<filter id="filter0_d_1180_41" x="104.633" y="37.6348" width="126.867" height="74.8296" filterUnits="userSpaceOnUse" color-interpolation-filters="sRGB">
<feFlood flood-opacity="0" result="BackgroundImageFix"/>
<feColorMatrix in="SourceAlpha" type="matrix" values="0 0 0 0 0 0 0 0 0 0 0 0 0 0 0 0 0 0 127 0" result="hardAlpha"/>
<feOffset dy="2.12474"/>
<feGaussianBlur stdDeviation="1.06237"/>
<feComposite in2="hardAlpha" operator="out"/>
<feColorMatrix type="matrix" values="0 0 0 0 0 0 0 0 0 0 0 0 0 0 0 0 0 0 0.25 0"/>
<feBlend mode="normal" in2="BackgroundImageFix" result="effect1_dropShadow_1180_41"/>
<feBlend mode="normal" in="SourceGraphic" in2="effect1_dropShadow_1180_41" result="shape"/>
</filter>
<filter id="filter1_d_1180_41" x="104.633" y="36.1602" width="126.867" height="74.8296" filterUnits="userSpaceOnUse" color-interpolation-filters="sRGB">
<feFlood flood-opacity="0" result="BackgroundImageFix"/>
<feColorMatrix in="SourceAlpha" type="matrix" values="0 0 0 0 0 0 0 0 0 0 0 0 0 0 0 0 0 0 127 0" result="hardAlpha"/>
<feOffset dy="2.12474"/>
<feGaussianBlur stdDeviation="1.06237"/>
<feComposite in2="hardAlpha" operator="out"/>
<feColorMatrix type="matrix" values="0 0 0 0 0 0 0 0 0 0 0 0 0 0 0 0 0 0 0.25 0"/>
<feBlend mode="normal" in2="BackgroundImageFix" result="effect1_dropShadow_1180_41"/>
<feBlend mode="normal" in="SourceGraphic" in2="effect1_dropShadow_1180_41" result="shape"/>
</filter>
<filter id="filter2_d_1180_41" x="222.286" y="8.81934" width="213.608" height="105.66" filterUnits="userSpaceOnUse" color-interpolation-filters="sRGB">
<feFlood flood-opacity="0" result="BackgroundImageFix"/>
<feColorMatrix in="SourceAlpha" type="matrix" values="0 0 0 0 0 0 0 0 0 0 0 0 0 0 0 0 0 0 127 0" result="hardAlpha"/>
<feOffset dy="2.43276"/>
<feGaussianBlur stdDeviation="1.21638"/>
<feComposite in2="hardAlpha" operator="out"/>
<feColorMatrix type="matrix" values="0 0 0 0 0 0 0 0 0 0 0 0 0 0 0 0 0 0 0.25 0"/>
<feBlend mode="normal" in2="BackgroundImageFix" result="effect1_dropShadow_1180_41"/>
<feBlend mode="normal" in="SourceGraphic" in2="effect1_dropShadow_1180_41" result="shape"/>
</filter>
<filter id="filter3_d_1180_41" x="221.497" y="7.34473" width="213.608" height="105.66" filterUnits="userSpaceOnUse" color-interpolation-filters="sRGB">
<feFlood flood-opacity="0" result="BackgroundImageFix"/>
<feColorMatrix in="SourceAlpha" type="matrix" values="0 0 0 0 0 0 0 0 0 0 0 0 0 0 0 0 0 0 127 0" result="hardAlpha"/>
<feOffset dy="2.43276"/>
<feGaussianBlur stdDeviation="1.21638"/>
<feComposite in2="hardAlpha" operator="out"/>
<feColorMatrix type="matrix" values="0 0 0 0 0 0 0 0 0 0 0 0 0 0 0 0 0 0 0.25 0"/>
<feBlend mode="normal" in2="BackgroundImageFix" result="effect1_dropShadow_1180_41"/>
<feBlend mode="normal" in="SourceGraphic" in2="effect1_dropShadow_1180_41" result="shape"/>
</filter>
<filter id="filter4_d_1180_41" x="6.14161" y="1.53613" width="99.7441" height="111.988" filterUnits="userSpaceOnUse" color-interpolation-filters="sRGB">
<feFlood flood-opacity="0" result="BackgroundImageFix"/>
<feColorMatrix in="SourceAlpha" type="matrix" values="0 0 0 0 0 0 0 0 0 0 0 0 0 0 0 0 0 0 127 0" result="hardAlpha"/>
<feOffset dy="1.66308"/>
<feGaussianBlur stdDeviation="0.831539"/>
<feComposite in2="hardAlpha" operator="out"/>
<feColorMatrix type="matrix" values="0 0 0 0 0 0 0 0 0 0 0 0 0 0 0 0 0 0 0.25 0"/>
<feBlend mode="normal" in2="BackgroundImageFix" result="effect1_dropShadow_1180_41"/>
<feBlend mode="normal" in="SourceGraphic" in2="effect1_dropShadow_1180_41" result="shape"/>
</filter>
<filter id="filter5_d_1180_41" x="6.14161" y="0" width="99.7441" height="111.988" filterUnits="userSpaceOnUse" color-interpolation-filters="sRGB">
<feFlood flood-opacity="0" result="BackgroundImageFix"/>
<feColorMatrix in="SourceAlpha" type="matrix" values="0 0 0 0 0 0 0 0 0 0 0 0 0 0 0 0 0 0 127 0" result="hardAlpha"/>
<feOffset dy="1.66308"/>
<feGaussianBlur stdDeviation="0.831539"/>
<feComposite in2="hardAlpha" operator="out"/>
<feColorMatrix type="matrix" values="0 0 0 0 0 0 0 0 0 0 0 0 0 0 0 0 0 0 0.25 0"/>
<feBlend mode="normal" in2="BackgroundImageFix" result="effect1_dropShadow_1180_41"/>
<feBlend mode="normal" in="SourceGraphic" in2="effect1_dropShadow_1180_41" result="shape"/>
</filter>
<filter id="filter6_d_1180_41" x="444.483" y="10.4639" width="16.8194" height="50.8965" filterUnits="userSpaceOnUse" color-interpolation-filters="sRGB">
<feFlood flood-opacity="0" result="BackgroundImageFix"/>
<feColorMatrix in="SourceAlpha" type="matrix" values="0 0 0 0 0 0 0 0 0 0 0 0 0 0 0 0 0 0 127 0" result="hardAlpha"/>
<feOffset dy="0.903829"/>
<feGaussianBlur stdDeviation="0.451915"/>
<feComposite in2="hardAlpha" operator="out"/>
<feColorMatrix type="matrix" values="0 0 0 0 0 0 0 0 0 0 0 0 0 0 0 0 0 0 0.25 0"/>
<feBlend mode="normal" in2="BackgroundImageFix" result="effect1_dropShadow_1180_41"/>
<feBlend mode="normal" in="SourceGraphic" in2="effect1_dropShadow_1180_41" result="shape"/>
</filter>
<filter id="filter7_d_1180_41" x="444.483" y="8.11621" width="16.8194" height="50.8965" filterUnits="userSpaceOnUse" color-interpolation-filters="sRGB">
<feFlood flood-opacity="0" result="BackgroundImageFix"/>
<feColorMatrix in="SourceAlpha" type="matrix" values="0 0 0 0 0 0 0 0 0 0 0 0 0 0 0 0 0 0 127 0" result="hardAlpha"/>
<feOffset dy="0.903829"/>
<feGaussianBlur stdDeviation="0.451915"/>
<feComposite in2="hardAlpha" operator="out"/>
<feColorMatrix type="matrix" values="0 0 0 0 0 0 0 0 0 0 0 0 0 0 0 0 0 0 0.25 0"/>
<feBlend mode="normal" in2="BackgroundImageFix" result="effect1_dropShadow_1180_41"/>
<feBlend mode="normal" in="SourceGraphic" in2="effect1_dropShadow_1180_41" result="shape"/>
</filter>
<linearGradient id="paint0_linear_1180_41" x1="166.587" y1="13.6748" x2="166.587" y2="104.378" gradientUnits="userSpaceOnUse">
<stop stop-color="white"/>
<stop offset="1" stop-color="#C4C4C4"/>
</linearGradient>
<linearGradient id="paint1_linear_1180_41" x1="166.587" y1="12.2002" x2="166.587" y2="102.903" gradientUnits="userSpaceOnUse">
<stop stop-color="#FDFDFD"/>
<stop offset="1" stop-color="#C4C4C4"/>
</linearGradient>
<linearGradient id="paint2_linear_1180_41" x1="335.143" y1="2.61426" x2="335.143" y2="102.904" gradientUnits="userSpaceOnUse">
<stop stop-color="white"/>
<stop offset="1" stop-color="#C4C4C4"/>
</linearGradient>
<linearGradient id="paint3_linear_1180_41" x1="334.354" y1="1.13965" x2="334.354" y2="101.429" gradientUnits="userSpaceOnUse">
<stop stop-color="#FDFDFD"/>
<stop offset="1" stop-color="#C4C4C4"/>
</linearGradient>
<linearGradient id="paint4_linear_1180_41" x1="55.9213" y1="17.3613" x2="55.9213" y2="91.8412" gradientUnits="userSpaceOnUse">
<stop stop-color="white"/>
<stop offset="1" stop-color="white"/>
</linearGradient>
<linearGradient id="paint5_linear_1180_41" x1="55.9213" y1="4.8252" x2="55.9213" y2="99.9529" gradientUnits="userSpaceOnUse">
<stop stop-color="white"/>
<stop offset="1" stop-color="#CBCBCB"/>
</linearGradient>
<linearGradient id="paint6_linear_1180_41" x1="453.584" y1="10.7388" x2="452.666" y2="53.729" gradientUnits="userSpaceOnUse">
<stop stop-color="white"/>
<stop offset="1" stop-color="#999999"/>
</linearGradient>
<linearGradient id="paint7_linear_1180_41" x1="453.584" y1="8.39115" x2="452.666" y2="51.3814" gradientUnits="userSpaceOnUse">
<stop stop-color="#F6F6F6"/>
<stop offset="1" stop-color="#C4C4C4"/>
</linearGradient>
</defs>
</svg>
